<?xml version="1.0" encoding="utf-8"?>
<!-- Generator: Adobe Illustrator 25.2.0, SVG Export Plug-In . SVG Version: 6.00 Build 0)  -->
<svg version="1.1" id="Layer_1" xmlns="http://www.w3.org/2000/svg" xmlns:xlink="http://www.w3.org/1999/xlink" x="0px" y="0px"
	 viewBox="0 0 70 87.5" style="enable-background:new 0 0 70 87.5;" xml:space="preserve">
<g>
	<path d="M53,49.2c-0.8,9.2-8.5,16.4-18,16.4c-9.4,0-17.2-7.2-18-16.4H4.2c0.2,1.6,0.7,2.9,3.2,3.4c4.2,0.9,7.1,7.8,5,11.2
		c-1.3,2.1-1.5,3.7,0.4,5.5c1.9,1.8,3.5,3.5,6.2,1.2c0.8-0.6,1.9-0.8,2.6-1c3.3,0,8.2,3,8.7,5.3c0.6,2.3,1.4,3.8,4.2,3.7
		c2.6-0.1,4.6,0,5.4-3.4c1-4.2,7.7-7,11.2-4.9c2.4,1.4,4,1.1,5.8-0.8c1.7-1.8,2.5-3.2,0.9-5.7c-2.4-3.8,0-10,4.4-11.1
		c2.4-0.6,3.3-1.6,3.6-3.5C65.8,49.2,53,49.2,53,49.2z"/>
	<g>
		<g>
			<path d="M68.3,45.7V47H1.7v-1.3c0-0.1,0-0.2,0-0.3c0.2-1.7,1.6-3,3.3-3h0.1c0.3-0.6,0.4-1.4,0.5-2.2c0.6-5.8,2.8-10.9,6.3-15.3
				c0,0,0,0,0,0c0.2-0.3,2.7-3,6.2-5.6c0,0,0,0,0,0c0.1-0.1,0.3-0.2,0.4-0.3l0,0c0.6,1.5,2.9,9.4,4.4,14.8l0.1,0.2
				c0.7,1.8,2.9,4.8,6.9,5l9.8,0l0.1,0c4-0.2,6.2-3.3,6.9-5l0.1-0.2c1.5-5.4,3.8-13.3,4.4-14.8l0,0c0.5,0.3,1,0.7,1.4,1
				c2,1.5,3.5,3,4.4,4c0.6,0.6,0.9,1,0.9,1l0,0c3.4,4.2,5.5,9.2,6.2,14.8c0.1,1,0.3,1.9,0.8,2.6h0c1.2,0,2.3,0.6,2.8,1.6
				C68.1,44.5,68.3,45.1,68.3,45.7z"/>
			<path d="M24.9,20.2c1,3.4,2,8,2.2,8.7c0.2,0.4,1.1,2.2,3.2,2.4h9.5c2.1-0.1,3-2,3.2-2.4c0.2-0.7,1.2-5.3,2.2-8.7
				c0.5-1.6,0.9-3,1.2-4.1c-0.4-0.2-0.7-0.3-1.1-0.5c-0.4-0.3-0.9-0.4-1.5-0.6c0,0-0.1,0-0.1,0c-0.3-0.1-0.5-0.1-0.8-0.2
				c-0.1,0-0.2,0-0.3-0.1c-1.3-0.4-2.5-1-2.5-3c0-0.4-1.1-1-1.7-1.1c-0.2,0-0.4,0-0.5,0c-0.1,0-0.1,0-0.2,0
				c-2.1-0.1-4.1-0.1-6.2,0.1c-0.6,0.1-1.7,0.7-1.7,1.1c0,2.1-1.3,2.7-2.7,3.1c0,0,0,0,0,0c0,0,0,0-0.1,0c-0.2,0-0.4,0.1-0.6,0.1
				c0,0,0,0,0,0c-0.1,0-0.2,0-0.3,0.1c-0.7,0.2-1.3,0.4-1.7,0.7h0c-0.2,0.1-0.3,0.1-0.5,0.2C24,17.2,24.4,18.6,24.9,20.2z"/>
		</g>
	</g>
</g>
</svg>
