<svg xmlns="http://www.w3.org/2000/svg" width="12" height="12" viewBox="0 0 12 12">
  <path id="update_FILL0_wght400_GRAD0_opsz24" d="M126-828a5.8,5.8,0,0,1-2.342-.475,6.1,6.1,0,0,1-1.9-1.283,6.1,6.1,0,0,1-1.283-1.9A5.805,5.805,0,0,1,120-834a5.805,5.805,0,0,1,.475-2.342,6.1,6.1,0,0,1,1.283-1.9,6.1,6.1,0,0,1,1.9-1.283A5.8,5.8,0,0,1,126-840a5.954,5.954,0,0,1,2.592.583,5.823,5.823,0,0,1,2.075,1.65v-1.567H132v4h-4v-1.333h1.833a4.954,4.954,0,0,0-1.683-1.467,4.5,4.5,0,0,0-2.15-.533,4.5,4.5,0,0,0-3.308,1.358A4.5,4.5,0,0,0,121.333-834a4.5,4.5,0,0,0,1.358,3.308A4.5,4.5,0,0,0,126-829.333a4.526,4.526,0,0,0,3.058-1.133,4.457,4.457,0,0,0,1.542-2.867h1.367a5.784,5.784,0,0,1-1.958,3.808A5.827,5.827,0,0,1,126-828Zm1.867-3.2-2.533-2.533v-3.6h1.333v3.067l2.133,2.133Z" transform="translate(-120 840)" fill="#232135"/>
</svg>
