<?xml version="1.0" standalone="no"?>
<!DOCTYPE svg PUBLIC "-//W3C//DTD SVG 20010904//EN"
 "http://www.w3.org/TR/2001/REC-SVG-20010904/DTD/svg10.dtd">
<svg version="1.0" xmlns="http://www.w3.org/2000/svg"
 width="512.000000pt" height="512.000000pt" viewBox="0 0 512.000000 512.000000"
 preserveAspectRatio="xMidYMid meet">

<g transform="translate(0.000000,512.000000) scale(0.100000,-0.100000)"
fill="#000000" stroke="none">
<path d="M0 2560 l0 -2560 2560 0 2560 0 0 2560 0 2560 -2560 0 -2560 0 0
-2560z m2886 2208 c52 -27 103 -77 128 -126 41 -79 41 -75 -25 -791 -34 -373
-59 -690 -55 -704 15 -60 105 -69 139 -15 11 17 31 205 73 668 32 355 61 649
65 654 10 12 202 -82 307 -150 358 -233 620 -586 737 -994 32 -112 65 -293 65
-359 l0 -31 -1761 0 -1762 0 7 78 c41 454 286 910 641 1194 148 118 447 286
464 260 3 -5 32 -300 64 -654 63 -690 61 -681 119 -702 33 -12 80 11 92 46 7
18 -9 230 -53 710 -65 718 -64 713 -25 790 36 70 111 129 189 149 17 4 145 7
285 6 l255 -2 51 -27z m1480 -2035 c63 -34 97 -66 128 -123 79 -145 19 -327
-132 -402 l-47 -23 -1755 0 -1755 0 -53 24 c-137 62 -205 223 -153 361 34 90
89 144 180 176 29 11 373 13 1791 11 l1755 -2 41 -22z m-2795 -805 c52 -160
126 -282 242 -399 345 -347 911 -407 1322 -141 195 126 338 314 416 546 l27
81 332 3 c327 2 332 2 327 -18 -4 -16 13 -29 114 -80 116 -59 149 -86 149
-123 0 -28 -222 -559 -242 -579 -26 -26 -69 -22 -192 17 -60 19 -114 35 -120
35 -6 0 -35 -31 -63 -68 -57 -75 -211 -227 -285 -282 -26 -19 -47 -39 -48 -45
0 -5 18 -66 39 -135 43 -138 42 -169 -8 -194 -62 -32 -542 -226 -558 -226 -37
0 -65 34 -123 151 -54 107 -63 119 -83 114 -82 -21 -432 -21 -514 0 -20 5 -29
-7 -83 -114 -59 -119 -86 -151 -125 -151 -11 1 -146 53 -299 118 -341 143
-322 120 -265 302 21 69 39 130 39 135 0 6 -31 34 -69 63 -75 57 -251 235
-291 295 -14 20 -30 37 -36 37 -6 0 -60 -16 -120 -35 -123 -39 -166 -43 -192
-17 -20 20 -242 551 -242 579 0 37 33 64 149 123 101 51 118 64 114 80 -5 20
0 20 327 18 l332 -3 29 -87z"/>
</g>
</svg>
